
        <svg xmlns="http://www.w3.org/2000/svg" xmlns:xlink="http://www.w3.org/1999/xlink" version="1.1" width="3181.5450846816166" 
        height="1179.1626698952718" viewBox="0 0 3181.5450846816166 1179.1626698952718">
			<rect fill="#fcfcfc" width="3181.5450846816166" height="1179.1626698952718"/>
			<g transform="scale(9.077254234080803) translate(10, 10)">
				<defs id="SvgjsDefs1341"></defs><g id="SvgjsG1342" featureKey="tpnldm-0" transform="matrix(4.2187439392539,0,0,4.2187439392539,-2.5312469670485016,25.528137197837477)" fill="#111111"><path d="M5.4 3.6400000000000006 l0 2.8 q0 1.04 -0.16 1.72 t-0.51 1.31 t-1.15 1.75 q-0.82 1.12 -1.07 1.7 t-0.25 1.5 l0 5.58 l-1.66 0 l0 -18.68 l2.56 0 q2.24 0 2.24 2.32 z M2.26 2.9800000000000004 l0 7.2 q0.18 -0.24 0.2 -0.26 q0.8 -1.1 1.04 -1.7 t0.24 -1.56 l0 -2.82 q0 -0.4 -0.16 -0.63 t-0.58 -0.23 l-0.74 0 z M11.379999999999999 20 l-1.64 0 l-0.02 -5.72 q0 -0.72 -0.14 -1.21 t-0.54 -1.09 q-0.46 0.7 -0.62 1.22 t-0.16 1.34 l0 5.46 l-1.66 0 l0 -18.68 l2.54 0 q2.24 0 2.24 2.32 l0 2.88 q0 1.32 -0.26 2.1 t-1.04 1.9 q0.76 1.08 1.03 1.85 t0.27 2.03 l0 5.6 z M9.72 3.84 q0 -0.4 -0.15 -0.63 t-0.57 -0.23 l-0.74 0 l0 7.2 q0.06 -0.06 0.09 -0.12 t0.07 -0.1 q0.8 -1.1 1.05 -1.69 t0.25 -1.51 l0 -2.92 z M14.24 3 l0 6.82 l1.48 0 l0 1.68 l-1.48 0 l0 6.82 l1.48 0 l0 1.68 l-3.14 0 l0 -18.68 l3.14 0 l0 1.68 l-1.48 0 z M18.82 8.22 q0.24 0.6 1.04 1.7 q0.8 1.12 1.16 1.74 t0.52 1.29 t0.16 1.71 l0 3.04 q0 2.3 -2.24 2.3 l-0.3 0 q-1.2 0 -1.72 -0.61 t-0.52 -1.69 l0 -4.66 l1.66 0 l0 4.44 q0 0.4 0.15 0.63 t0.57 0.23 t0.58 -0.23 t0.16 -0.63 l0 -3.06 q0 -0.92 -0.25 -1.5 t-1.05 -1.7 q-0.8 -1.1 -1.16 -1.74 t-0.51 -1.32 t-0.15 -1.72 l0 -3.08 q0 -1.1 0.52 -1.7 t1.72 -0.6 l0.3 0 q2.24 0 2.24 2.3 l0 4.7 l-1.66 0 l0 -4.48 q0 -0.4 -0.16 -0.63 t-0.58 -0.23 t-0.57 0.23 t-0.15 0.63 l0 3.08 q0 0.96 0.24 1.56 z M27.68 2.9800000000000004 l-1.56 0 l0 17.02 l-1.66 0 l0 -17.02 l-1.56 0 l0 -1.66 l4.78 0 l0 1.66 z M30.54 1.3200000000000003 l0 18.68 l-1.66 0 l0 -18.68 l1.66 0 z M36.52 17.7 q0 2.3 -2.24 2.3 l-0.3 0 q-1.2 0 -1.72 -0.61 t-0.52 -1.69 l0 -14.34 q0 -1.1 0.52 -1.7 t1.72 -0.6 l0.3 0 q1.2 0 1.72 0.6 t0.52 1.7 l0 4.7 l-1.66 0 l0 -4.48 q0 -0.4 -0.15 -0.63 t-0.59 -0.23 q-0.42 0 -0.57 0.23 t-0.15 0.63 l0 13.9 q0 0.4 0.15 0.63 t0.57 0.23 q0.44 0 0.59 -0.23 t0.15 -0.63 l0 -4.48 l-0.72 0 l0 -1.66 l2.38 0 l0 6.36 z M39.38 3 l0 6.82 l1.48 0 l0 1.68 l-1.48 0 l0 6.82 l1.48 0 l0 1.68 l-3.14 0 l0 -18.68 l3.14 0 l0 1.68 l-1.48 0 z M53.96000000000001 1.3200000000000003 l-1.66 0 l-0.72 11.94 l-0.74 -11.94 l-1.66 0 l-0.72 11.94 l-0.76 -11.94 l-1.64 0 l1.6 18.68 l1.64 0 l0.72 -11.94 l0.76 11.94 l1.66 0 z M55.16000000000001 1.3200000000000003 l0 18.68 l1.64 0 l0.02 -5.58 q0 -0.92 0.25 -1.51 t1.05 -1.69 l0.16 -0.22 l0 9 l1.66 0 l0 -18.68 l-1.66 0 l0 5.34 q0 0.96 -0.24 1.56 t-1.04 1.7 q-0.18 0.24 -0.2 0.26 l0 -8.86 l-1.64 0 z M62.82000000000001 3 l0 6.82 l1.48 0 l0 1.68 l-1.48 0 l0 6.82 l1.48 0 l0 1.68 l-3.14 0 l0 -18.68 l3.14 0 l0 1.68 l-1.48 0 z M67.16000000000001 3 l0 6.82 l1.48 0 l0 1.68 l-1.48 0 l0 6.82 l1.48 0 l0 1.68 l-3.14 0 l0 -18.68 l3.14 0 l0 1.68 l-1.48 0 z M71.50000000000001 1.3200000000000003 l0 17 l1.46 0 l0 1.68 l-3.12 0 l0 -18.68 l1.66 0 z M76.06 8.22 q0.24 0.6 1.04 1.7 q0.8 1.12 1.16 1.74 t0.52 1.29 t0.16 1.71 l0 3.04 q0 2.3 -2.24 2.3 l-0.3 0 q-1.2 0 -1.72 -0.61 t-0.52 -1.69 l0 -4.66 l1.66 0 l0 4.44 q0 0.4 0.15 0.63 t0.57 0.23 t0.58 -0.23 t0.16 -0.63 l0 -3.06 q0 -0.92 -0.25 -1.5 t-1.05 -1.7 q-0.8 -1.1 -1.16 -1.74 t-0.51 -1.32 t-0.15 -1.72 l0 -3.08 q0 -1.1 0.52 -1.7 t1.72 -0.6 l0.3 0 q2.24 0 2.24 2.3 l0 4.7 l-1.66 0 l0 -4.48 q0 -0.4 -0.16 -0.63 t-0.58 -0.23 t-0.57 0.23 t-0.15 0.63 l0 3.08 q0 0.96 0.24 1.56 z"></path></g>
			</g>
		</svg>
	